<svg width="2001" height="1187" viewBox="0 0 2001 1187" fill="none" xmlns="http://www.w3.org/2000/svg">
<path d="M671.278 937.269C624.692 900.282 586.942 853.37 560.777 799.951C534.611 746.531 520.689 687.948 520.025 628.468L920 624L671.278 937.269Z" fill="#4B60BF"/>
<path d="M1456 624C1456 708.472 1429.26 790.775 1379.61 859.114L1056 624H1456Z" fill="#2F52EC"/>
<path d="M1316.74 863.011C1285.35 905.131 1245.98 940.657 1200.86 967.559C1155.74 994.461 1105.77 1012.21 1053.79 1019.8C1001.81 1027.39 948.85 1024.67 897.924 1011.79C846.999 998.911 799.109 976.127 756.989 944.739L996 624L1316.74 863.011Z" fill="#D9D9D9"/>
<path d="M568 570C568 485.528 594.742 403.225 644.393 334.886C694.044 266.547 764.056 215.681 844.393 189.577L968 570L568 570Z" fill="#6781F5"/>
<path d="M878.626 163.608C938.972 145.086 1002.84 141.108 1065.02 152C1127.2 162.892 1185.92 188.345 1236.37 226.278L996 546L878.626 163.608Z" fill="#6781F5"/>
<path d="M1271.01 257.759C1318.36 295.671 1356.47 343.854 1382.45 398.664C1408.43 453.474 1421.6 513.475 1420.98 574.128L1021 570L1271.01 257.759Z" fill="#6781F5"/>
<path d="M290.879 798C290.879 794.727 293.532 792.074 296.804 792.074C300.077 792.074 302.73 794.727 302.73 798C302.73 801.273 300.077 803.926 296.804 803.926C293.532 803.926 290.879 801.273 290.879 798ZM558.472 673.111H327.916V670.889H558.472V673.111ZM297.916 703.111V798H295.693V703.111H297.916ZM327.916 673.111C311.347 673.111 297.916 686.543 297.916 703.111H295.693C295.693 685.315 310.12 670.889 327.916 670.889V673.111Z" fill="#4B60BF"/>
<path d="M1721.93 896C1721.93 892.727 1719.27 890.074 1716 890.074C1712.73 890.074 1710.07 892.727 1710.07 896C1710.07 899.273 1712.73 901.926 1716 901.926C1719.27 901.926 1721.93 899.273 1721.93 896ZM1394.41 700.111H1684.89V697.889H1394.41V700.111ZM1714.89 730.111V896H1717.11V730.111H1714.89ZM1684.89 700.111C1701.46 700.111 1714.89 713.543 1714.89 730.111H1717.11C1717.11 712.315 1702.68 697.889 1684.89 697.889V700.111Z" fill="#2F52EC"/>
<path d="M656.347 1119.56C659.62 1119.56 662.273 1116.9 662.273 1113.63C662.273 1110.36 659.62 1107.7 656.347 1107.7C653.074 1107.7 650.421 1110.36 650.421 1113.63C650.421 1116.9 653.074 1119.56 656.347 1119.56ZM1033.27 1024L1033.27 1082.52L1035.5 1082.52L1035.5 1024L1033.27 1024ZM1003.27 1112.52L656.347 1112.52L656.347 1114.74L1003.27 1114.74L1003.27 1112.52ZM1033.27 1082.52C1033.27 1099.09 1019.84 1112.52 1003.27 1112.52L1003.27 1114.74C1021.07 1114.74 1035.5 1100.31 1035.5 1082.52L1033.27 1082.52Z" fill="white"/>
<path d="M143 154.074C146.273 154.074 148.926 156.727 148.926 160C148.926 163.273 146.273 165.926 143 165.926C139.727 165.926 137.074 163.273 137.074 160C137.074 156.727 139.727 154.074 143 154.074ZM710.166 446L710.166 191.111L712.389 191.111L712.389 446L710.166 446ZM680.166 161.111L143 161.111L143 158.889L680.166 158.889L680.166 161.111ZM710.166 191.111C710.166 174.543 696.735 161.111 680.166 161.111L680.166 158.889C697.962 158.889 712.389 173.315 712.389 191.111L710.166 191.111Z" fill="#6781F5"/>
<path d="M1604.28 21.0741C1601 21.0741 1598.35 23.7272 1598.35 27C1598.35 30.2728 1601 32.9259 1604.28 32.9259C1607.55 32.9259 1610.2 30.2728 1610.2 27C1610.2 23.7272 1607.55 21.0741 1604.28 21.0741ZM1037.11 313L1037.11 58.1111L1034.89 58.1111L1034.89 313L1037.11 313ZM1067.11 28.1111L1604.28 28.1111L1604.28 25.8889L1067.11 25.8889L1067.11 28.1111ZM1037.11 58.1111C1037.11 41.5426 1050.54 28.1111 1067.11 28.1111L1067.11 25.8889C1049.32 25.8889 1034.89 40.3153 1034.89 58.1111L1037.11 58.1111Z" fill="#6781F5"/>
<path d="M1839 399.074C1835.73 399.074 1833.07 401.727 1833.07 405C1833.07 408.273 1835.73 410.926 1839 410.926C1842.27 410.926 1844.93 408.273 1844.93 405C1844.93 401.727 1842.27 399.074 1839 399.074ZM1272.11 486L1272.11 436.111L1269.89 436.111L1269.89 486L1272.11 486ZM1302.11 406.111L1839 406.111L1839 403.889L1302.11 403.889L1302.11 406.111ZM1272.11 436.111C1272.11 419.543 1285.54 406.111 1302.11 406.111L1302.11 403.889C1284.32 403.889 1269.89 418.315 1269.89 436.111L1272.11 436.111Z" fill="#6781F5"/>
<circle cx="995.926" cy="603.926" r="85.9259" fill="black"/>
<path d="M534.311 1128V1122.32L545.163 1113.34C545.883 1112.74 546.498 1112.19 547.01 1111.66C547.53 1111.13 547.928 1110.59 548.203 1110.03C548.487 1109.47 548.629 1108.85 548.629 1108.17C548.629 1107.42 548.468 1106.78 548.146 1106.25C547.833 1105.72 547.398 1105.32 546.839 1105.03C546.28 1104.74 545.636 1104.59 544.907 1104.59C544.178 1104.59 543.534 1104.74 542.975 1105.03C542.426 1105.32 542 1105.76 541.697 1106.32C541.394 1106.89 541.243 1107.58 541.243 1108.4H533.743C533.743 1106.35 534.202 1104.59 535.12 1103.11C536.039 1101.64 537.336 1100.5 539.012 1099.7C540.689 1098.91 542.654 1098.51 544.907 1098.51C547.237 1098.51 549.254 1098.89 550.958 1099.63C552.672 1100.37 553.993 1101.41 554.922 1102.76C555.859 1104.1 556.328 1105.68 556.328 1107.49C556.328 1108.61 556.096 1109.72 555.632 1110.83C555.168 1111.93 554.334 1113.14 553.132 1114.48C551.929 1115.81 550.22 1117.4 548.004 1119.25L545.277 1121.52V1121.69H556.64V1128H534.311ZM571.818 1128.4C569.583 1128.4 567.599 1128 565.866 1127.22C564.143 1126.42 562.784 1125.33 561.789 1123.94C560.805 1122.55 560.303 1120.95 560.284 1119.14H567.954C567.983 1120.14 568.371 1120.94 569.119 1121.54C569.877 1122.13 570.776 1122.43 571.818 1122.43C572.623 1122.43 573.333 1122.26 573.949 1121.92C574.564 1121.57 575.047 1121.08 575.397 1120.44C575.748 1119.81 575.918 1119.07 575.909 1118.23C575.918 1117.38 575.748 1116.64 575.397 1116.01C575.047 1115.38 574.564 1114.89 573.949 1114.55C573.333 1114.2 572.623 1114.02 571.818 1114.02C570.984 1114.02 570.213 1114.23 569.502 1114.63C568.802 1115.03 568.286 1115.59 567.954 1116.3L561.022 1114.93L562.159 1098.91H581.704V1105.22H568.636L568.068 1111.64H568.238C568.693 1110.76 569.479 1110.03 570.596 1109.45C571.714 1108.86 573.011 1108.57 574.488 1108.57C576.221 1108.57 577.765 1108.97 579.119 1109.78C580.483 1110.58 581.557 1111.69 582.343 1113.11C583.139 1114.52 583.532 1116.15 583.522 1118C583.532 1120.03 583.049 1121.83 582.074 1123.4C581.108 1124.96 579.749 1126.19 577.997 1127.08C576.245 1127.96 574.185 1128.4 571.818 1128.4ZM603.576 1122.55V1121.01C603.576 1119.78 603.841 1118.64 604.371 1117.6C604.911 1116.56 605.692 1115.72 606.715 1115.09C607.738 1114.45 608.983 1114.14 610.451 1114.14C611.956 1114.14 613.221 1114.45 614.243 1115.07C615.275 1115.7 616.057 1116.53 616.587 1117.57C617.117 1118.62 617.382 1119.76 617.382 1121.01V1122.55C617.382 1123.78 617.113 1124.91 616.573 1125.95C616.042 1127 615.261 1127.83 614.229 1128.47C613.197 1129.1 611.937 1129.42 610.451 1129.42C608.964 1129.42 607.709 1129.1 606.686 1128.47C605.664 1127.83 604.887 1127 604.357 1125.95C603.836 1124.91 603.576 1123.78 603.576 1122.55ZM608.519 1121.01V1122.55C608.519 1123.09 608.651 1123.62 608.917 1124.15C609.191 1124.67 609.703 1124.93 610.451 1124.93C611.237 1124.93 611.753 1124.68 611.999 1124.16C612.255 1123.65 612.382 1123.11 612.382 1122.55V1121.01C612.382 1120.44 612.264 1119.89 612.027 1119.36C611.791 1118.83 611.265 1118.57 610.451 1118.57C609.703 1118.57 609.191 1118.83 608.917 1119.36C608.651 1119.89 608.519 1120.44 608.519 1121.01ZM588.348 1105.9V1104.36C588.348 1103.11 588.618 1101.97 589.158 1100.93C589.707 1099.88 590.493 1099.05 591.516 1098.43C592.539 1097.8 593.775 1097.49 595.223 1097.49C596.729 1097.49 597.993 1097.8 599.016 1098.43C600.048 1099.05 600.829 1099.88 601.36 1100.93C601.89 1101.97 602.155 1103.11 602.155 1104.36V1105.9C602.155 1107.15 601.885 1108.29 601.346 1109.32C600.815 1110.35 600.034 1111.18 599.002 1111.79C597.97 1112.41 596.71 1112.72 595.223 1112.72C593.737 1112.72 592.482 1112.4 591.459 1111.78C590.436 1111.15 589.66 1110.32 589.13 1109.29C588.609 1108.26 588.348 1107.13 588.348 1105.9ZM593.348 1104.36V1105.9C593.348 1106.47 593.481 1107.01 593.746 1107.52C594.011 1108.03 594.504 1108.28 595.223 1108.28C596.009 1108.28 596.525 1108.03 596.772 1107.52C597.027 1107.01 597.155 1106.47 597.155 1105.9V1104.36C597.155 1103.8 597.037 1103.25 596.8 1102.72C596.563 1102.19 596.038 1101.92 595.223 1101.92C594.475 1101.92 593.973 1102.2 593.718 1102.74C593.471 1103.28 593.348 1103.82 593.348 1104.36ZM590.763 1128L610.763 1098.91H614.797L594.797 1128H590.763Z" fill="#5B79FF"/>
<path d="M1690.65 916.909V946H1682.76V924.182H1682.59L1676.22 927.989V921.284L1683.38 916.909H1690.65ZM1709.3 946.795C1706.66 946.786 1704.37 946.175 1702.45 944.963C1700.53 943.751 1699.05 942.004 1698 939.722C1696.96 937.439 1696.45 934.703 1696.46 931.511C1696.47 928.311 1696.99 925.593 1698.02 923.358C1699.06 921.123 1700.54 919.423 1702.45 918.259C1704.37 917.094 1706.66 916.511 1709.3 916.511C1711.94 916.511 1714.22 917.098 1716.14 918.273C1718.07 919.437 1719.55 921.137 1720.59 923.372C1721.63 925.607 1722.15 928.32 1722.14 931.511C1722.14 934.722 1721.62 937.468 1720.58 939.75C1719.53 942.032 1718.05 943.779 1716.13 944.991C1714.22 946.194 1711.94 946.795 1709.3 946.795ZM1709.3 940.375C1710.66 940.375 1711.78 939.665 1712.65 938.244C1713.53 936.814 1713.97 934.57 1713.96 931.511C1713.96 929.513 1713.76 927.88 1713.36 926.611C1712.96 925.342 1712.41 924.404 1711.71 923.798C1711.01 923.183 1710.21 922.875 1709.3 922.875C1707.93 922.875 1706.82 923.566 1705.96 924.949C1705.1 926.331 1704.66 928.519 1704.64 931.511C1704.63 933.547 1704.82 935.223 1705.22 936.54C1705.62 937.847 1706.17 938.812 1706.87 939.438C1707.58 940.062 1708.39 940.375 1709.3 940.375ZM1742.49 940.545V939.011C1742.49 937.78 1742.76 936.644 1743.29 935.602C1743.83 934.561 1744.61 933.723 1745.63 933.088C1746.66 932.454 1747.9 932.136 1749.37 932.136C1750.87 932.136 1752.14 932.449 1753.16 933.074C1754.19 933.699 1754.97 934.532 1755.5 935.574C1756.04 936.616 1756.3 937.761 1756.3 939.011V940.545C1756.3 941.777 1756.03 942.913 1755.49 943.955C1754.96 944.996 1754.18 945.834 1753.15 946.469C1752.11 947.103 1750.86 947.42 1749.37 947.42C1747.88 947.42 1746.63 947.103 1745.6 946.469C1744.58 945.834 1743.81 944.996 1743.27 943.955C1742.75 942.913 1742.49 941.777 1742.49 940.545ZM1747.44 939.011V940.545C1747.44 941.085 1747.57 941.62 1747.83 942.151C1748.11 942.671 1748.62 942.932 1749.37 942.932C1750.15 942.932 1750.67 942.676 1750.92 942.165C1751.17 941.653 1751.3 941.114 1751.3 940.545V939.011C1751.3 938.443 1751.18 937.894 1750.95 937.364C1750.71 936.833 1750.18 936.568 1749.37 936.568C1748.62 936.568 1748.11 936.833 1747.83 937.364C1747.57 937.894 1747.44 938.443 1747.44 939.011ZM1727.27 923.898V922.364C1727.27 921.114 1727.54 919.968 1728.08 918.926C1728.63 917.884 1729.41 917.051 1730.43 916.426C1731.46 915.801 1732.69 915.489 1734.14 915.489C1735.65 915.489 1736.91 915.801 1737.93 916.426C1738.97 917.051 1739.75 917.884 1740.28 918.926C1740.81 919.968 1741.07 921.114 1741.07 922.364V923.898C1741.07 925.148 1740.8 926.289 1740.26 927.321C1739.73 928.353 1738.95 929.177 1737.92 929.793C1736.89 930.408 1735.63 930.716 1734.14 930.716C1732.65 930.716 1731.4 930.403 1730.38 929.778C1729.35 929.153 1728.58 928.325 1728.05 927.293C1727.53 926.26 1727.27 925.129 1727.27 923.898ZM1732.27 922.364V923.898C1732.27 924.466 1732.4 925.006 1732.66 925.517C1732.93 926.028 1733.42 926.284 1734.14 926.284C1734.93 926.284 1735.44 926.028 1735.69 925.517C1735.95 925.006 1736.07 924.466 1736.07 923.898V922.364C1736.07 921.795 1735.95 921.246 1735.72 920.716C1735.48 920.186 1734.96 919.92 1734.14 919.92C1733.39 919.92 1732.89 920.195 1732.64 920.744C1732.39 921.284 1732.27 921.824 1732.27 922.364ZM1729.68 946L1749.68 916.909H1753.72L1733.72 946H1729.68Z" fill="#5B79FF"/>
<path d="M284.385 831.909V861H276.487V839.182H276.316L269.953 842.989V836.284L277.112 831.909H284.385ZM302.005 861.398C299.77 861.398 297.787 861.005 296.054 860.219C294.33 859.423 292.971 858.33 291.977 856.938C290.992 855.545 290.49 853.945 290.471 852.136H298.142C298.17 853.14 298.558 853.94 299.306 854.537C300.064 855.134 300.964 855.432 302.005 855.432C302.81 855.432 303.52 855.261 304.136 854.92C304.752 854.57 305.234 854.078 305.585 853.443C305.935 852.809 306.106 852.07 306.096 851.227C306.106 850.375 305.935 849.636 305.585 849.011C305.234 848.377 304.752 847.889 304.136 847.548C303.52 847.198 302.81 847.023 302.005 847.023C301.172 847.023 300.4 847.226 299.69 847.634C298.989 848.031 298.473 848.585 298.142 849.295L291.21 847.932L292.346 831.909H311.892V838.216H298.824L298.255 844.636H298.426C298.88 843.756 299.666 843.027 300.784 842.449C301.901 841.862 303.199 841.568 304.676 841.568C306.409 841.568 307.952 841.971 309.306 842.776C310.67 843.58 311.745 844.693 312.531 846.114C313.326 847.525 313.719 849.153 313.71 851C313.719 853.027 313.236 854.826 312.261 856.398C311.295 857.96 309.936 859.187 308.184 860.077C306.432 860.957 304.373 861.398 302.005 861.398ZM333.763 855.545V854.011C333.763 852.78 334.028 851.644 334.559 850.602C335.098 849.561 335.88 848.723 336.902 848.088C337.925 847.454 339.17 847.136 340.638 847.136C342.144 847.136 343.408 847.449 344.431 848.074C345.463 848.699 346.244 849.532 346.775 850.574C347.305 851.616 347.57 852.761 347.57 854.011V855.545C347.57 856.777 347.3 857.913 346.76 858.955C346.23 859.996 345.449 860.834 344.417 861.469C343.384 862.103 342.125 862.42 340.638 862.42C339.151 862.42 337.897 862.103 336.874 861.469C335.851 860.834 335.075 859.996 334.544 858.955C334.024 857.913 333.763 856.777 333.763 855.545ZM338.706 854.011V855.545C338.706 856.085 338.839 856.62 339.104 857.151C339.379 857.671 339.89 857.932 340.638 857.932C341.424 857.932 341.94 857.676 342.186 857.165C342.442 856.653 342.57 856.114 342.57 855.545V854.011C342.57 853.443 342.452 852.894 342.215 852.364C341.978 851.833 341.453 851.568 340.638 851.568C339.89 851.568 339.379 851.833 339.104 852.364C338.839 852.894 338.706 853.443 338.706 854.011ZM318.536 838.898V837.364C318.536 836.114 318.806 834.968 319.346 833.926C319.895 832.884 320.681 832.051 321.703 831.426C322.726 830.801 323.962 830.489 325.411 830.489C326.917 830.489 328.181 830.801 329.203 831.426C330.236 832.051 331.017 832.884 331.547 833.926C332.078 834.968 332.343 836.114 332.343 837.364V838.898C332.343 840.148 332.073 841.289 331.533 842.321C331.003 843.353 330.221 844.177 329.189 844.793C328.157 845.408 326.898 845.716 325.411 845.716C323.924 845.716 322.669 845.403 321.647 844.778C320.624 844.153 319.847 843.325 319.317 842.293C318.796 841.26 318.536 840.129 318.536 838.898ZM323.536 837.364V838.898C323.536 839.466 323.668 840.006 323.934 840.517C324.199 841.028 324.691 841.284 325.411 841.284C326.197 841.284 326.713 841.028 326.959 840.517C327.215 840.006 327.343 839.466 327.343 838.898V837.364C327.343 836.795 327.224 836.246 326.988 835.716C326.751 835.186 326.225 834.92 325.411 834.92C324.663 834.92 324.161 835.195 323.905 835.744C323.659 836.284 323.536 836.824 323.536 837.364ZM320.951 861L340.951 831.909H344.985L324.985 861H320.951Z" fill="#5B79FF"/>
<path d="M23.0803 150V144.318L33.9325 135.341C34.6522 134.744 35.2678 134.186 35.7791 133.665C36.3 133.134 36.6977 132.59 36.9723 132.031C37.2564 131.473 37.3984 130.852 37.3984 130.17C37.3984 129.422 37.2375 128.783 36.9155 128.253C36.603 127.723 36.1674 127.315 35.6087 127.031C35.05 126.738 34.406 126.591 33.6768 126.591C32.9477 126.591 32.3037 126.738 31.745 127.031C31.1958 127.325 30.7696 127.756 30.4666 128.324C30.1636 128.892 30.0121 129.583 30.0121 130.398H22.5121C22.5121 128.352 22.9714 126.591 23.8899 125.114C24.8085 123.636 26.1058 122.5 27.782 121.705C29.4581 120.909 31.4231 120.511 33.6768 120.511C36.0064 120.511 38.0234 120.885 39.728 121.634C41.442 122.372 42.763 123.414 43.6911 124.759C44.6286 126.103 45.0973 127.68 45.0973 129.489C45.0973 130.606 44.8653 131.719 44.4013 132.827C43.9373 133.925 43.1039 135.142 41.9013 136.477C40.6986 137.812 38.9893 139.403 36.7734 141.25L34.0462 143.523V143.693H45.4098V150H23.0803ZM61.6101 150.795C58.968 150.786 56.6858 150.175 54.7635 148.963C52.8411 147.751 51.3591 146.004 50.3175 143.722C49.2758 141.439 48.7597 138.703 48.7692 135.511C48.7786 132.311 49.2995 129.593 50.3317 127.358C51.3733 125.123 52.8506 123.423 54.7635 122.259C56.6858 121.094 58.968 120.511 61.6101 120.511C64.2521 120.511 66.5343 121.098 68.4567 122.273C70.379 123.437 71.861 125.137 72.9027 127.372C73.9444 129.607 74.4605 132.32 74.451 135.511C74.451 138.722 73.9302 141.468 72.8885 143.75C71.8468 146.032 70.3648 147.779 68.4425 148.991C66.5296 150.194 64.2521 150.795 61.6101 150.795ZM61.6101 144.375C62.9737 144.375 64.0911 143.665 64.9624 142.244C65.843 140.814 66.2786 138.57 66.2692 135.511C66.2692 133.513 66.0703 131.88 65.6726 130.611C65.2749 129.342 64.7256 128.404 64.0249 127.798C63.3241 127.183 62.5192 126.875 61.6101 126.875C60.2464 126.875 59.1338 127.566 58.272 128.949C57.4103 130.331 56.9699 132.519 56.951 135.511C56.9415 137.547 57.1357 139.223 57.5334 140.54C57.9311 141.847 58.4804 142.812 59.1811 143.438C59.8913 144.062 60.701 144.375 61.6101 144.375ZM94.8061 144.545V143.011C94.8061 141.78 95.0713 140.644 95.6016 139.602C96.1413 138.561 96.9226 137.723 97.9453 137.088C98.968 136.454 100.213 136.136 101.681 136.136C103.187 136.136 104.451 136.449 105.474 137.074C106.506 137.699 107.287 138.532 107.817 139.574C108.348 140.616 108.613 141.761 108.613 143.011V144.545C108.613 145.777 108.343 146.913 107.803 147.955C107.273 148.996 106.492 149.834 105.46 150.469C104.427 151.103 103.168 151.42 101.681 151.42C100.194 151.42 98.9396 151.103 97.9169 150.469C96.8942 149.834 96.1177 148.996 95.5874 147.955C95.0665 146.913 94.8061 145.777 94.8061 144.545ZM99.7493 143.011V144.545C99.7493 145.085 99.8819 145.62 100.147 146.151C100.422 146.671 100.933 146.932 101.681 146.932C102.467 146.932 102.983 146.676 103.229 146.165C103.485 145.653 103.613 145.114 103.613 144.545V143.011C103.613 142.443 103.495 141.894 103.258 141.364C103.021 140.833 102.496 140.568 101.681 140.568C100.933 140.568 100.422 140.833 100.147 141.364C99.8819 141.894 99.7493 142.443 99.7493 143.011ZM79.5788 127.898V126.364C79.5788 125.114 79.8487 123.968 80.3885 122.926C80.9377 121.884 81.7237 121.051 82.7464 120.426C83.7692 119.801 85.005 119.489 86.4538 119.489C87.9595 119.489 89.2237 119.801 90.2464 120.426C91.2786 121.051 92.0599 121.884 92.5902 122.926C93.1205 123.968 93.3857 125.114 93.3857 126.364V127.898C93.3857 129.148 93.1158 130.289 92.576 131.321C92.0457 132.353 91.2644 133.177 90.2322 133.793C89.2 134.408 87.9406 134.716 86.4538 134.716C84.9671 134.716 83.7124 134.403 82.6896 133.778C81.6669 133.153 80.8904 132.325 80.3601 131.293C79.8393 130.26 79.5788 129.129 79.5788 127.898ZM84.5788 126.364V127.898C84.5788 128.466 84.7114 129.006 84.9766 129.517C85.2417 130.028 85.7341 130.284 86.4538 130.284C87.2398 130.284 87.7559 130.028 88.0021 129.517C88.2578 129.006 88.3857 128.466 88.3857 127.898V126.364C88.3857 125.795 88.2673 125.246 88.0305 124.716C87.7938 124.186 87.2682 123.92 86.4538 123.92C85.7057 123.92 85.2038 124.195 84.9482 124.744C84.7019 125.284 84.5788 125.824 84.5788 126.364ZM81.9936 150L101.994 120.909H106.028L86.0277 150H81.9936Z" fill="#5B79FF"/>
<path d="M1687.38 1.90909V31H1679.49V9.18182H1679.32L1672.95 12.9886V6.28409L1680.11 1.90909H1687.38ZM1705.01 31.3977C1702.77 31.3977 1700.79 31.0047 1699.05 30.2188C1697.33 29.4233 1695.97 28.3295 1694.98 26.9375C1693.99 25.5455 1693.49 23.9451 1693.47 22.1364H1701.14C1701.17 23.1402 1701.56 23.9403 1702.31 24.5369C1703.06 25.1335 1703.96 25.4318 1705.01 25.4318C1705.81 25.4318 1706.52 25.2614 1707.14 24.9205C1707.75 24.5701 1708.23 24.0777 1708.58 23.4432C1708.94 22.8087 1709.11 22.0701 1709.1 21.2273C1709.11 20.375 1708.94 19.6364 1708.58 19.0114C1708.23 18.3769 1707.75 17.8892 1707.14 17.5483C1706.52 17.1979 1705.81 17.0227 1705.01 17.0227C1704.17 17.0227 1703.4 17.2263 1702.69 17.6335C1701.99 18.0312 1701.47 18.5852 1701.14 19.2955L1694.21 17.9318L1695.35 1.90909H1714.89V8.21591H1701.82L1701.26 14.6364H1701.43C1701.88 13.7557 1702.67 13.0265 1703.78 12.4489C1704.9 11.8617 1706.2 11.5682 1707.68 11.5682C1709.41 11.5682 1710.95 11.9706 1712.31 12.7756C1713.67 13.5805 1714.74 14.6932 1715.53 16.1136C1716.33 17.5246 1716.72 19.1534 1716.71 21C1716.72 23.0265 1716.24 24.8258 1715.26 26.3977C1714.3 27.9602 1712.94 29.1866 1711.18 30.0767C1709.43 30.9574 1707.37 31.3977 1705.01 31.3977ZM1736.76 25.5455V24.0114C1736.76 22.7803 1737.03 21.6439 1737.56 20.6023C1738.1 19.5606 1738.88 18.7225 1739.9 18.0881C1740.93 17.4536 1742.17 17.1364 1743.64 17.1364C1745.14 17.1364 1746.41 17.4489 1747.43 18.0739C1748.46 18.6989 1749.24 19.5322 1749.77 20.5739C1750.3 21.6155 1750.57 22.7614 1750.57 24.0114V25.5455C1750.57 26.7765 1750.3 27.9129 1749.76 28.9545C1749.23 29.9962 1748.45 30.8343 1747.42 31.4688C1746.38 32.1032 1745.12 32.4205 1743.64 32.4205C1742.15 32.4205 1740.9 32.1032 1739.87 31.4688C1738.85 30.8343 1738.07 29.9962 1737.54 28.9545C1737.02 27.9129 1736.76 26.7765 1736.76 25.5455ZM1741.71 24.0114V25.5455C1741.71 26.0852 1741.84 26.6203 1742.1 27.1506C1742.38 27.6714 1742.89 27.9318 1743.64 27.9318C1744.42 27.9318 1744.94 27.6761 1745.19 27.1648C1745.44 26.6534 1745.57 26.1136 1745.57 25.5455V24.0114C1745.57 23.4432 1745.45 22.8939 1745.21 22.3636C1744.98 21.8333 1744.45 21.5682 1743.64 21.5682C1742.89 21.5682 1742.38 21.8333 1742.1 22.3636C1741.84 22.8939 1741.71 23.4432 1741.71 24.0114ZM1721.54 8.89773V7.36364C1721.54 6.11364 1721.81 4.9678 1722.35 3.92614C1722.89 2.88447 1723.68 2.05114 1724.7 1.42614C1725.73 0.801135 1726.96 0.488635 1728.41 0.488635C1729.92 0.488635 1731.18 0.801135 1732.2 1.42614C1733.24 2.05114 1734.02 2.88447 1734.55 3.92614C1735.08 4.9678 1735.34 6.11364 1735.34 7.36364V8.89773C1735.34 10.1477 1735.07 11.2888 1734.53 12.321C1734 13.3532 1733.22 14.1771 1732.19 14.7926C1731.16 15.4081 1729.9 15.7159 1728.41 15.7159C1726.92 15.7159 1725.67 15.4034 1724.65 14.7784C1723.62 14.1534 1722.85 13.3248 1722.32 12.2926C1721.8 11.2604 1721.54 10.1288 1721.54 8.89773ZM1726.54 7.36364V8.89773C1726.54 9.46591 1726.67 10.0057 1726.93 10.517C1727.2 11.0284 1727.69 11.2841 1728.41 11.2841C1729.2 11.2841 1729.71 11.0284 1729.96 10.517C1730.21 10.0057 1730.34 9.46591 1730.34 8.89773V7.36364C1730.34 6.79545 1730.22 6.24621 1729.99 5.71591C1729.75 5.1856 1729.23 4.92045 1728.41 4.92045C1727.66 4.92045 1727.16 5.19507 1726.91 5.74432C1726.66 6.28409 1726.54 6.82386 1726.54 7.36364ZM1723.95 31L1743.95 1.90909H1747.98L1727.98 31H1723.95Z" fill="#5B79FF"/>
<path d="M1905.38 375.909V405H1897.49V383.182H1897.32L1890.95 386.989V380.284L1898.11 375.909H1905.38ZM1923.01 405.398C1920.77 405.398 1918.79 405.005 1917.05 404.219C1915.33 403.423 1913.97 402.33 1912.98 400.938C1911.99 399.545 1911.49 397.945 1911.47 396.136H1919.14C1919.17 397.14 1919.56 397.94 1920.31 398.537C1921.06 399.134 1921.96 399.432 1923.01 399.432C1923.81 399.432 1924.52 399.261 1925.14 398.92C1925.75 398.57 1926.23 398.078 1926.58 397.443C1926.94 396.809 1927.11 396.07 1927.1 395.227C1927.11 394.375 1926.94 393.636 1926.58 393.011C1926.23 392.377 1925.75 391.889 1925.14 391.548C1924.52 391.198 1923.81 391.023 1923.01 391.023C1922.17 391.023 1921.4 391.226 1920.69 391.634C1919.99 392.031 1919.47 392.585 1919.14 393.295L1912.21 391.932L1913.35 375.909H1932.89V382.216H1919.82L1919.26 388.636H1919.43C1919.88 387.756 1920.67 387.027 1921.78 386.449C1922.9 385.862 1924.2 385.568 1925.68 385.568C1927.41 385.568 1928.95 385.971 1930.31 386.776C1931.67 387.58 1932.74 388.693 1933.53 390.114C1934.33 391.525 1934.72 393.153 1934.71 395C1934.72 397.027 1934.24 398.826 1933.26 400.398C1932.3 401.96 1930.94 403.187 1929.18 404.077C1927.43 404.957 1925.37 405.398 1923.01 405.398ZM1954.76 399.545V398.011C1954.76 396.78 1955.03 395.644 1955.56 394.602C1956.1 393.561 1956.88 392.723 1957.9 392.088C1958.93 391.454 1960.17 391.136 1961.64 391.136C1963.14 391.136 1964.41 391.449 1965.43 392.074C1966.46 392.699 1967.24 393.532 1967.77 394.574C1968.3 395.616 1968.57 396.761 1968.57 398.011V399.545C1968.57 400.777 1968.3 401.913 1967.76 402.955C1967.23 403.996 1966.45 404.834 1965.42 405.469C1964.38 406.103 1963.12 406.42 1961.64 406.42C1960.15 406.42 1958.9 406.103 1957.87 405.469C1956.85 404.834 1956.07 403.996 1955.54 402.955C1955.02 401.913 1954.76 400.777 1954.76 399.545ZM1959.71 398.011V399.545C1959.71 400.085 1959.84 400.62 1960.1 401.151C1960.38 401.671 1960.89 401.932 1961.64 401.932C1962.42 401.932 1962.94 401.676 1963.19 401.165C1963.44 400.653 1963.57 400.114 1963.57 399.545V398.011C1963.57 397.443 1963.45 396.894 1963.21 396.364C1962.98 395.833 1962.45 395.568 1961.64 395.568C1960.89 395.568 1960.38 395.833 1960.1 396.364C1959.84 396.894 1959.71 397.443 1959.71 398.011ZM1939.54 382.898V381.364C1939.54 380.114 1939.81 378.968 1940.35 377.926C1940.89 376.884 1941.68 376.051 1942.7 375.426C1943.73 374.801 1944.96 374.489 1946.41 374.489C1947.92 374.489 1949.18 374.801 1950.2 375.426C1951.24 376.051 1952.02 376.884 1952.55 377.926C1953.08 378.968 1953.34 380.114 1953.34 381.364V382.898C1953.34 384.148 1953.07 385.289 1952.53 386.321C1952 387.353 1951.22 388.177 1950.19 388.793C1949.16 389.408 1947.9 389.716 1946.41 389.716C1944.92 389.716 1943.67 389.403 1942.65 388.778C1941.62 388.153 1940.85 387.325 1940.32 386.293C1939.8 385.26 1939.54 384.129 1939.54 382.898ZM1944.54 381.364V382.898C1944.54 383.466 1944.67 384.006 1944.93 384.517C1945.2 385.028 1945.69 385.284 1946.41 385.284C1947.2 385.284 1947.71 385.028 1947.96 384.517C1948.21 384.006 1948.34 383.466 1948.34 382.898V381.364C1948.34 380.795 1948.22 380.246 1947.99 379.716C1947.75 379.186 1947.23 378.92 1946.41 378.92C1945.66 378.92 1945.16 379.195 1944.91 379.744C1944.66 380.284 1944.54 380.824 1944.54 381.364ZM1941.95 405L1961.95 375.909H1965.98L1945.98 405H1941.95Z" fill="#5B79FF"/>
<path d="M523.261 1161.08H520.861C520.834 1162.79 520.808 1164.53 520.781 1166.32C520.781 1168.08 520.781 1169.85 520.781 1171.64V1173.56H523.421C525.848 1173.56 527.581 1172.97 528.621 1171.8C529.661 1170.6 530.181 1169.07 530.181 1167.2C530.181 1165.25 529.621 1163.75 528.501 1162.68C527.408 1161.61 525.661 1161.08 523.261 1161.08ZM513.221 1160.88V1159.24H523.981C527.368 1159.24 529.901 1159.99 531.581 1161.48C533.288 1162.95 534.141 1164.85 534.141 1167.2C534.141 1168.69 533.768 1170.07 533.021 1171.32C532.274 1172.57 531.074 1173.57 529.421 1174.32C527.794 1175.07 525.608 1175.44 522.861 1175.44H520.781C520.781 1176.88 520.781 1178.29 520.781 1179.68C520.808 1181.07 520.834 1182.48 520.861 1183.92L524.581 1184.36V1186H513.221V1184.36L516.901 1183.92C516.954 1182.24 516.981 1180.53 516.981 1178.8C516.981 1177.07 516.981 1175.33 516.981 1173.6V1171.64C516.981 1169.91 516.981 1168.19 516.981 1166.48C516.981 1164.75 516.954 1163.03 516.901 1161.32L513.221 1160.88ZM536.305 1186V1184.56L539.185 1184.04C539.212 1183.03 539.225 1181.93 539.225 1180.76C539.252 1179.56 539.265 1178.51 539.265 1177.6V1175.68C539.265 1174.59 539.252 1173.68 539.225 1172.96C539.225 1172.24 539.198 1171.48 539.145 1170.68L535.985 1170.32V1168.92L541.585 1166.48L542.185 1166.88L542.625 1171.6C543.292 1170 544.145 1168.75 545.185 1167.84C546.252 1166.93 547.318 1166.48 548.385 1166.48C548.998 1166.48 549.572 1166.61 550.105 1166.88C550.638 1167.15 551.025 1167.51 551.265 1167.96C551.265 1169.91 550.478 1170.88 548.905 1170.88C548.452 1170.88 548.025 1170.8 547.625 1170.64C547.225 1170.45 546.838 1170.2 546.465 1169.88L545.985 1169.44C545.185 1170.03 544.518 1170.75 543.985 1171.6C543.452 1172.45 543.012 1173.45 542.665 1174.6V1177.6C542.665 1178.48 542.665 1179.51 542.665 1180.68C542.692 1181.85 542.718 1182.95 542.745 1183.96L546.025 1184.56V1186H536.305ZM561.908 1168.32C561.162 1168.32 560.402 1168.53 559.628 1168.96C558.882 1169.39 558.228 1170.07 557.668 1171C557.135 1171.93 556.788 1173.17 556.628 1174.72H563.908C564.868 1174.72 565.495 1174.52 565.788 1174.12C566.108 1173.72 566.268 1173.23 566.268 1172.64C566.268 1171.87 566.068 1171.16 565.668 1170.52C565.295 1169.85 564.775 1169.32 564.108 1168.92C563.468 1168.52 562.735 1168.32 561.908 1168.32ZM561.868 1186.52C559.175 1186.52 557.015 1185.65 555.388 1183.92C553.762 1182.16 552.948 1179.75 552.948 1176.68C552.948 1174.63 553.362 1172.84 554.188 1171.32C555.042 1169.8 556.162 1168.61 557.548 1167.76C558.962 1166.91 560.495 1166.48 562.148 1166.48C563.535 1166.48 564.788 1166.79 565.908 1167.4C567.028 1168.01 567.922 1168.89 568.588 1170.04C569.255 1171.16 569.588 1172.53 569.588 1174.16C569.588 1174.61 569.562 1175.04 569.508 1175.44C569.455 1175.81 569.388 1176.13 569.308 1176.4H556.548C556.602 1178.85 557.215 1180.72 558.388 1182C559.562 1183.28 561.108 1183.92 563.028 1183.92C564.308 1183.92 565.375 1183.67 566.228 1183.16C567.082 1182.63 567.868 1181.95 568.588 1181.12L569.548 1181.88C568.802 1183.29 567.788 1184.43 566.508 1185.28C565.228 1186.11 563.682 1186.52 561.868 1186.52ZM579.539 1186.52C578.419 1186.52 577.392 1186.39 576.459 1186.12C575.526 1185.88 574.566 1185.51 573.579 1185L573.419 1180.6H575.619L576.379 1184.08C577.312 1184.51 578.392 1184.72 579.619 1184.72C581.139 1184.72 582.259 1184.44 582.979 1183.88C583.726 1183.32 584.099 1182.59 584.099 1181.68C584.099 1180.83 583.792 1180.15 583.179 1179.64C582.566 1179.11 581.632 1178.63 580.379 1178.2L578.539 1177.52C577.072 1176.99 575.899 1176.29 575.019 1175.44C574.139 1174.59 573.699 1173.48 573.699 1172.12C573.699 1171.13 573.966 1170.21 574.499 1169.36C575.032 1168.51 575.819 1167.81 576.859 1167.28C577.899 1166.75 579.166 1166.48 580.659 1166.48C581.752 1166.48 582.739 1166.63 583.619 1166.92C584.526 1167.19 585.406 1167.59 586.259 1168.12L586.099 1172.2H584.019L583.379 1169C582.472 1168.55 581.552 1168.32 580.619 1168.32C579.392 1168.32 578.459 1168.57 577.819 1169.08C577.206 1169.56 576.899 1170.21 576.899 1171.04C576.899 1171.92 577.166 1172.59 577.699 1173.04C578.259 1173.49 579.219 1173.97 580.579 1174.48L581.819 1174.92C583.819 1175.67 585.232 1176.52 586.059 1177.48C586.912 1178.44 587.339 1179.55 587.339 1180.8C587.339 1181.81 587.046 1182.76 586.459 1183.64C585.872 1184.49 585.006 1185.19 583.859 1185.72C582.712 1186.25 581.272 1186.52 579.539 1186.52ZM605.523 1186.4C604.563 1186.4 603.763 1186.12 603.123 1185.56C602.483 1185 602.083 1184.25 601.923 1183.32C600.829 1184.39 599.869 1185.19 599.043 1185.72C598.216 1186.25 597.216 1186.52 596.043 1186.52C594.576 1186.52 593.309 1186.11 592.243 1185.28C591.203 1184.43 590.683 1183.17 590.683 1181.52C590.683 1180.75 590.856 1180.03 591.203 1179.36C591.576 1178.69 592.243 1178.04 593.203 1177.4C594.163 1176.76 595.536 1176.12 597.323 1175.48C597.936 1175.27 598.643 1175.04 599.443 1174.8C600.243 1174.56 601.043 1174.35 601.843 1174.16V1173.16C601.843 1171.21 601.549 1169.92 600.963 1169.28C600.376 1168.64 599.416 1168.32 598.083 1168.32C597.789 1168.32 597.456 1168.33 597.083 1168.36C596.736 1168.39 596.349 1168.45 595.923 1168.56L595.163 1171.16C594.789 1172.44 594.096 1173.08 593.083 1173.08C591.963 1173.08 591.336 1172.53 591.203 1171.44C591.576 1169.92 592.456 1168.72 593.843 1167.84C595.256 1166.93 596.976 1166.48 599.003 1166.48C601.109 1166.48 602.669 1167.01 603.683 1168.08C604.696 1169.12 605.203 1170.91 605.203 1173.44V1181.96C605.203 1182.81 605.336 1183.43 605.603 1183.8C605.869 1184.15 606.216 1184.32 606.643 1184.32C606.989 1184.32 607.283 1184.24 607.523 1184.08C607.763 1183.92 607.989 1183.71 608.203 1183.44L609.003 1184.32C608.523 1185.09 607.989 1185.64 607.403 1185.96C606.843 1186.25 606.216 1186.4 605.523 1186.4ZM594.243 1180.92C594.243 1181.99 594.549 1182.75 595.163 1183.2C595.776 1183.65 596.536 1183.88 597.443 1183.88C597.843 1183.88 598.216 1183.83 598.563 1183.72C598.936 1183.61 599.376 1183.41 599.883 1183.12C600.389 1182.8 601.043 1182.35 601.843 1181.76V1175.64C601.149 1175.83 600.469 1176.04 599.803 1176.28C599.136 1176.49 598.589 1176.68 598.163 1176.84C597.016 1177.29 596.163 1177.76 595.603 1178.24C595.043 1178.72 594.669 1179.19 594.483 1179.64C594.323 1180.09 594.243 1180.52 594.243 1180.92ZM610.234 1186V1184.56L613.434 1184C613.461 1182.91 613.474 1181.84 613.474 1180.8C613.501 1179.73 613.514 1178.67 613.514 1177.6V1160.04L610.234 1159.64V1158.24L616.474 1156.44L617.034 1156.76L616.874 1162.44V1177.6C616.874 1178.67 616.874 1179.73 616.874 1180.8C616.901 1181.87 616.928 1182.93 616.954 1184L620.154 1184.56V1186H610.234ZM631.908 1168.32C631.162 1168.32 630.402 1168.53 629.628 1168.96C628.882 1169.39 628.228 1170.07 627.668 1171C627.135 1171.93 626.788 1173.17 626.628 1174.72H633.908C634.868 1174.72 635.495 1174.52 635.788 1174.12C636.108 1173.72 636.268 1173.23 636.268 1172.64C636.268 1171.87 636.068 1171.16 635.668 1170.52C635.295 1169.85 634.775 1169.32 634.108 1168.92C633.468 1168.52 632.735 1168.32 631.908 1168.32ZM631.868 1186.52C629.175 1186.52 627.015 1185.65 625.388 1183.92C623.762 1182.16 622.948 1179.75 622.948 1176.68C622.948 1174.63 623.362 1172.84 624.188 1171.32C625.042 1169.8 626.162 1168.61 627.548 1167.76C628.962 1166.91 630.495 1166.48 632.148 1166.48C633.535 1166.48 634.788 1166.79 635.908 1167.4C637.028 1168.01 637.922 1168.89 638.588 1170.04C639.255 1171.16 639.588 1172.53 639.588 1174.16C639.588 1174.61 639.562 1175.04 639.508 1175.44C639.455 1175.81 639.388 1176.13 639.308 1176.4H626.548C626.602 1178.85 627.215 1180.72 628.388 1182C629.562 1183.28 631.108 1183.92 633.028 1183.92C634.308 1183.92 635.375 1183.67 636.228 1183.16C637.082 1182.63 637.868 1181.95 638.588 1181.12L639.548 1181.88C638.802 1183.29 637.788 1184.43 636.508 1185.28C635.228 1186.11 633.682 1186.52 631.868 1186.52Z" fill="white"/>
<path d="M1668.03 1004.36L1668.35 997.24H1690.27L1690.59 1004.36H1688.27L1687.39 999.24H1681.27C1681.24 1000.95 1681.22 1002.67 1681.19 1004.4C1681.19 1006.13 1681.19 1007.88 1681.19 1009.64V1011.6C1681.19 1013.31 1681.19 1015.03 1681.19 1016.76C1681.22 1018.47 1681.24 1020.19 1681.27 1021.92L1685.35 1022.36V1024H1673.27V1022.36L1677.35 1021.92C1677.4 1020.21 1677.43 1018.51 1677.43 1016.8C1677.43 1015.07 1677.43 1013.33 1677.43 1011.6V1009.64C1677.43 1007.91 1677.43 1006.17 1677.43 1004.44C1677.43 1002.71 1677.4 1000.97 1677.35 999.24H1671.23L1670.35 1004.36H1668.03ZM1699.32 1006.32C1698.57 1006.32 1697.81 1006.53 1697.04 1006.96C1696.29 1007.39 1695.64 1008.07 1695.08 1009C1694.55 1009.93 1694.2 1011.17 1694.04 1012.72H1701.32C1702.28 1012.72 1702.91 1012.52 1703.2 1012.12C1703.52 1011.72 1703.68 1011.23 1703.68 1010.64C1703.68 1009.87 1703.48 1009.16 1703.08 1008.52C1702.71 1007.85 1702.19 1007.32 1701.52 1006.92C1700.88 1006.52 1700.15 1006.32 1699.32 1006.32ZM1699.28 1024.52C1696.59 1024.52 1694.43 1023.65 1692.8 1021.92C1691.17 1020.16 1690.36 1017.75 1690.36 1014.68C1690.36 1012.63 1690.77 1010.84 1691.6 1009.32C1692.45 1007.8 1693.57 1006.61 1694.96 1005.76C1696.37 1004.91 1697.91 1004.48 1699.56 1004.48C1700.95 1004.48 1702.2 1004.79 1703.32 1005.4C1704.44 1006.01 1705.33 1006.89 1706 1008.04C1706.67 1009.16 1707 1010.53 1707 1012.16C1707 1012.61 1706.97 1013.04 1706.92 1013.44C1706.87 1013.81 1706.8 1014.13 1706.72 1014.4H1693.96C1694.01 1016.85 1694.63 1018.72 1695.8 1020C1696.97 1021.28 1698.52 1021.92 1700.44 1021.92C1701.72 1021.92 1702.79 1021.67 1703.64 1021.16C1704.49 1020.63 1705.28 1019.95 1706 1019.12L1706.96 1019.88C1706.21 1021.29 1705.2 1022.43 1703.92 1023.28C1702.64 1024.11 1701.09 1024.52 1699.28 1024.52ZM1725.2 1024.4C1724.24 1024.4 1723.44 1024.12 1722.8 1023.56C1722.16 1023 1721.76 1022.25 1721.6 1021.32C1720.51 1022.39 1719.55 1023.19 1718.72 1023.72C1717.89 1024.25 1716.89 1024.52 1715.72 1024.52C1714.25 1024.52 1712.99 1024.11 1711.92 1023.28C1710.88 1022.43 1710.36 1021.17 1710.36 1019.52C1710.36 1018.75 1710.53 1018.03 1710.88 1017.36C1711.25 1016.69 1711.92 1016.04 1712.88 1015.4C1713.84 1014.76 1715.21 1014.12 1717 1013.48C1717.61 1013.27 1718.32 1013.04 1719.12 1012.8C1719.92 1012.56 1720.72 1012.35 1721.52 1012.16V1011.16C1721.52 1009.21 1721.23 1007.92 1720.64 1007.28C1720.05 1006.64 1719.09 1006.32 1717.76 1006.32C1717.47 1006.32 1717.13 1006.33 1716.76 1006.36C1716.41 1006.39 1716.03 1006.45 1715.6 1006.56L1714.84 1009.16C1714.47 1010.44 1713.77 1011.08 1712.76 1011.08C1711.64 1011.08 1711.01 1010.53 1710.88 1009.44C1711.25 1007.92 1712.13 1006.72 1713.52 1005.84C1714.93 1004.93 1716.65 1004.48 1718.68 1004.48C1720.79 1004.48 1722.35 1005.01 1723.36 1006.08C1724.37 1007.12 1724.88 1008.91 1724.88 1011.44V1019.96C1724.88 1020.81 1725.01 1021.43 1725.28 1021.8C1725.55 1022.15 1725.89 1022.32 1726.32 1022.32C1726.67 1022.32 1726.96 1022.24 1727.2 1022.08C1727.44 1021.92 1727.67 1021.71 1727.88 1021.44L1728.68 1022.32C1728.2 1023.09 1727.67 1023.64 1727.08 1023.96C1726.52 1024.25 1725.89 1024.4 1725.2 1024.4ZM1713.92 1018.92C1713.92 1019.99 1714.23 1020.75 1714.84 1021.2C1715.45 1021.65 1716.21 1021.88 1717.12 1021.88C1717.52 1021.88 1717.89 1021.83 1718.24 1021.72C1718.61 1021.61 1719.05 1021.41 1719.56 1021.12C1720.07 1020.8 1720.72 1020.35 1721.52 1019.76V1013.64C1720.83 1013.83 1720.15 1014.04 1719.48 1014.28C1718.81 1014.49 1718.27 1014.68 1717.84 1014.84C1716.69 1015.29 1715.84 1015.76 1715.28 1016.24C1714.72 1016.72 1714.35 1017.19 1714.16 1017.64C1714 1018.09 1713.92 1018.52 1713.92 1018.92ZM1730.31 1024V1022.56L1733.27 1022C1733.3 1020.99 1733.31 1019.89 1733.31 1018.72C1733.34 1017.55 1733.35 1016.51 1733.35 1015.6V1013.68C1733.35 1012.59 1733.34 1011.68 1733.31 1010.96C1733.31 1010.24 1733.29 1009.48 1733.23 1008.68L1730.07 1008.32V1006.92L1735.67 1004.48L1736.27 1004.88L1736.59 1008.12C1737.53 1007.05 1738.62 1006.19 1739.87 1005.52C1741.13 1004.83 1742.37 1004.48 1743.59 1004.48C1744.85 1004.48 1745.86 1004.77 1746.63 1005.36C1747.43 1005.95 1748.01 1006.91 1748.35 1008.24C1749.37 1006.99 1750.5 1006.05 1751.75 1005.44C1753.01 1004.8 1754.29 1004.48 1755.59 1004.48C1757.22 1004.48 1758.47 1005.03 1759.35 1006.12C1760.26 1007.21 1760.71 1009 1760.71 1011.48V1015.6C1760.71 1016.51 1760.71 1017.55 1760.71 1018.72C1760.74 1019.89 1760.77 1020.99 1760.79 1022L1763.59 1022.56V1024H1754.31V1022.56L1757.27 1022C1757.3 1021.01 1757.31 1019.93 1757.31 1018.76C1757.34 1017.56 1757.35 1016.51 1757.35 1015.6V1012.12C1757.35 1010.25 1757.09 1009 1756.55 1008.36C1756.02 1007.69 1755.17 1007.36 1753.99 1007.36C1753.17 1007.36 1752.31 1007.55 1751.43 1007.92C1750.58 1008.29 1749.65 1008.95 1748.63 1009.88C1748.66 1010.17 1748.67 1010.49 1748.67 1010.84C1748.7 1011.16 1748.71 1011.51 1748.71 1011.88V1015.6C1748.71 1016.51 1748.71 1017.55 1748.71 1018.72C1748.74 1019.89 1748.77 1020.99 1748.79 1022L1751.59 1022.56V1024H1742.31V1022.56L1745.27 1022C1745.3 1021.01 1745.31 1019.93 1745.31 1018.76C1745.34 1017.56 1745.35 1016.51 1745.35 1015.6V1012.2C1745.35 1010.39 1745.1 1009.13 1744.59 1008.44C1744.09 1007.72 1743.25 1007.36 1742.07 1007.36C1741.17 1007.36 1740.3 1007.55 1739.47 1007.92C1738.65 1008.29 1737.74 1008.91 1736.75 1009.76V1015.6C1736.75 1016.48 1736.75 1017.52 1736.75 1018.72C1736.78 1019.89 1736.81 1020.99 1736.83 1022L1739.59 1022.56V1024H1730.31Z" fill="white"/>
<path d="M228.105 898.08H225.705C225.678 899.787 225.651 901.533 225.625 903.32C225.625 905.08 225.625 906.853 225.625 908.64V910.56H228.265C230.691 910.56 232.425 909.973 233.465 908.8C234.505 907.6 235.025 906.067 235.025 904.2C235.025 902.253 234.465 900.747 233.345 899.68C232.251 898.613 230.505 898.08 228.105 898.08ZM218.065 897.88V896.24H228.825C232.211 896.24 234.745 896.987 236.425 898.48C238.131 899.947 238.985 901.853 238.985 904.2C238.985 905.693 238.611 907.067 237.865 908.32C237.118 909.573 235.918 910.573 234.265 911.32C232.638 912.067 230.451 912.44 227.705 912.44H225.625C225.625 913.88 225.625 915.293 225.625 916.68C225.651 918.067 225.678 919.48 225.705 920.92L229.425 921.36V923H218.065V921.36L221.745 920.92C221.798 919.24 221.825 917.533 221.825 915.8C221.825 914.067 221.825 912.333 221.825 910.6V908.64C221.825 906.907 221.825 905.187 221.825 903.48C221.825 901.747 221.798 900.027 221.745 898.32L218.065 897.88ZM248.779 923.52C247.153 923.52 245.873 922.987 244.939 921.92C244.006 920.827 243.553 918.96 243.579 916.32L243.699 906.36L240.859 905.76V904.32L246.739 903.76L247.139 904.16L246.939 909.76V915.96C246.939 917.693 247.206 918.92 247.739 919.64C248.273 920.333 249.073 920.68 250.139 920.68C252.006 920.68 253.873 919.813 255.739 918.08L255.859 906.32L253.019 905.76V904.32L258.819 903.76L259.219 904.16L259.099 909.76V921L261.819 921.56V923L256.259 923.32L255.859 919.76C254.793 921.067 253.646 922.027 252.419 922.64C251.219 923.227 250.006 923.52 248.779 923.52ZM264.38 923V921.56L267.38 921.04C267.406 920.027 267.42 918.933 267.42 917.76C267.446 916.56 267.46 915.507 267.46 914.6V897.04L264.18 896.64V895.24L270.3 893.44L270.86 893.76L270.7 899.44V906.56C271.66 905.493 272.646 904.72 273.66 904.24C274.7 903.733 275.766 903.48 276.86 903.48C278.273 903.48 279.553 903.867 280.7 904.64C281.846 905.413 282.753 906.533 283.42 908C284.113 909.467 284.46 911.24 284.46 913.32C284.46 915.373 284.1 917.173 283.38 918.72C282.66 920.24 281.673 921.427 280.42 922.28C279.193 923.107 277.793 923.52 276.22 923.52C275.286 923.52 274.353 923.32 273.42 922.92C272.486 922.52 271.58 921.773 270.7 920.68L270.38 923.4L264.38 923ZM275.78 905.76C275.166 905.76 274.46 905.92 273.66 906.24C272.86 906.56 271.913 907.173 270.82 908.08V919.04C271.646 919.813 272.46 920.373 273.26 920.72C274.06 921.067 274.833 921.24 275.58 921.24C276.993 921.24 278.22 920.627 279.26 919.4C280.326 918.147 280.86 916.227 280.86 913.64C280.86 911.08 280.38 909.133 279.42 907.8C278.486 906.44 277.273 905.76 275.78 905.76ZM286.875 923V921.56L290.075 921C290.102 919.907 290.115 918.84 290.115 917.8C290.142 916.733 290.155 915.667 290.155 914.6V897.04L286.875 896.64V895.24L293.115 893.44L293.675 893.76L293.515 899.44V914.6C293.515 915.667 293.515 916.733 293.515 917.8C293.542 918.867 293.568 919.933 293.595 921L296.795 921.56V923H286.875ZM299.189 923V921.56L302.189 921C302.216 919.987 302.229 918.893 302.229 917.72C302.256 916.52 302.269 915.48 302.269 914.6V912.72C302.269 911.627 302.256 910.72 302.229 910C302.229 909.253 302.202 908.48 302.149 907.68L298.949 907.32V905.92L305.109 903.48L305.709 903.88L305.589 909.32V914.6C305.589 915.48 305.589 916.52 305.589 917.72C305.616 918.893 305.642 919.987 305.669 921L308.469 921.56V923H299.189ZM303.909 899.08C303.162 899.08 302.522 898.84 301.989 898.36C301.482 897.88 301.229 897.267 301.229 896.52C301.229 895.747 301.482 895.133 301.989 894.68C302.522 894.2 303.162 893.96 303.909 893.96C304.656 893.96 305.282 894.2 305.789 894.68C306.322 895.133 306.589 895.747 306.589 896.52C306.589 897.267 306.322 897.88 305.789 898.36C305.282 898.84 304.656 899.08 303.909 899.08ZM320.383 923.52C317.636 923.52 315.45 922.627 313.823 920.84C312.196 919.053 311.383 916.627 311.383 913.56C311.383 911.453 311.81 909.653 312.663 908.16C313.543 906.64 314.69 905.48 316.103 904.68C317.516 903.88 319.023 903.48 320.623 903.48C321.823 903.48 322.93 903.707 323.943 904.16C324.956 904.613 325.796 905.24 326.463 906.04C327.13 906.813 327.543 907.693 327.703 908.68C327.516 909.693 326.903 910.2 325.863 910.2C325.196 910.2 324.69 910.027 324.343 909.68C324.023 909.307 323.796 908.84 323.663 908.28L322.943 905.64C322.57 905.507 322.196 905.427 321.823 905.4C321.476 905.347 321.13 905.32 320.783 905.32C319.076 905.32 317.663 905.987 316.543 907.32C315.45 908.653 314.903 910.6 314.903 913.16C314.903 915.667 315.503 917.587 316.703 918.92C317.903 920.253 319.436 920.92 321.303 920.92C322.45 920.92 323.503 920.667 324.463 920.16C325.423 919.627 326.21 918.867 326.823 917.88L327.823 918.4C327.263 920.053 326.356 921.32 325.103 922.2C323.85 923.08 322.276 923.52 320.383 923.52ZM347.97 923.6C346.477 923.6 345.037 923.4 343.65 923C342.264 922.573 341.104 922.067 340.17 921.48L340.41 915.88H342.89L343.69 920.6C344.304 920.947 344.93 921.2 345.57 921.36C346.237 921.52 346.997 921.6 347.85 921.6C349.744 921.6 351.25 921.187 352.37 920.36C353.49 919.507 354.05 918.307 354.05 916.76C354.05 915.48 353.65 914.493 352.85 913.8C352.077 913.08 350.837 912.387 349.13 911.72L347.57 911.08C345.517 910.28 343.85 909.253 342.57 908C341.317 906.72 340.69 905.067 340.69 903.04C340.69 901.493 341.077 900.173 341.85 899.08C342.65 897.987 343.73 897.147 345.09 896.56C346.45 895.947 347.984 895.64 349.69 895.64C351.024 895.64 352.237 895.827 353.33 896.2C354.424 896.573 355.397 897.08 356.25 897.72L356.01 902.96H353.57L352.73 898.44C351.744 897.907 350.65 897.64 349.45 897.64C347.93 897.64 346.65 898.027 345.61 898.8C344.57 899.547 344.05 900.667 344.05 902.16C344.05 903.387 344.437 904.4 345.21 905.2C346.01 906 347.13 906.68 348.57 907.24L350.17 907.84C352.784 908.853 354.65 910 355.77 911.28C356.89 912.533 357.45 914.107 357.45 916C357.45 917.573 357.037 918.933 356.21 920.08C355.41 921.2 354.304 922.067 352.89 922.68C351.477 923.293 349.837 923.6 347.97 923.6ZM375.679 923.4C374.719 923.4 373.919 923.12 373.279 922.56C372.639 922 372.239 921.253 372.079 920.32C370.986 921.387 370.026 922.187 369.199 922.72C368.372 923.253 367.372 923.52 366.199 923.52C364.732 923.52 363.466 923.107 362.399 922.28C361.359 921.427 360.839 920.173 360.839 918.52C360.839 917.747 361.012 917.027 361.359 916.36C361.732 915.693 362.399 915.04 363.359 914.4C364.319 913.76 365.692 913.12 367.479 912.48C368.092 912.267 368.799 912.04 369.599 911.8C370.399 911.56 371.199 911.347 371.999 911.16V910.16C371.999 908.213 371.706 906.92 371.119 906.28C370.532 905.64 369.572 905.32 368.239 905.32C367.946 905.32 367.612 905.333 367.239 905.36C366.892 905.387 366.506 905.453 366.079 905.56L365.319 908.16C364.946 909.44 364.252 910.08 363.239 910.08C362.119 910.08 361.492 909.533 361.359 908.44C361.732 906.92 362.612 905.72 363.999 904.84C365.412 903.933 367.132 903.48 369.159 903.48C371.266 903.48 372.826 904.013 373.839 905.08C374.852 906.12 375.359 907.907 375.359 910.44V918.96C375.359 919.813 375.492 920.427 375.759 920.8C376.026 921.147 376.372 921.32 376.799 921.32C377.146 921.32 377.439 921.24 377.679 921.08C377.919 920.92 378.146 920.707 378.359 920.44L379.159 921.32C378.679 922.093 378.146 922.64 377.559 922.96C376.999 923.253 376.372 923.4 375.679 923.4ZM364.399 917.92C364.399 918.987 364.706 919.747 365.319 920.2C365.932 920.653 366.692 920.88 367.599 920.88C367.999 920.88 368.372 920.827 368.719 920.72C369.092 920.613 369.532 920.413 370.039 920.12C370.546 919.8 371.199 919.347 371.999 918.76V912.64C371.306 912.827 370.626 913.04 369.959 913.28C369.292 913.493 368.746 913.68 368.319 913.84C367.172 914.293 366.319 914.76 365.759 915.24C365.199 915.72 364.826 916.187 364.639 916.64C364.479 917.093 364.399 917.52 364.399 917.92ZM380.391 923V921.56L383.591 921C383.617 919.907 383.631 918.84 383.631 917.8C383.657 916.733 383.671 915.667 383.671 914.6V897.04L380.391 896.64V895.24L386.631 893.44L387.191 893.76L387.031 899.44V914.6C387.031 915.667 387.031 916.733 387.031 917.8C387.057 918.867 387.084 919.933 387.111 921L390.311 921.56V923H380.391ZM402.065 905.32C401.318 905.32 400.558 905.533 399.785 905.96C399.038 906.387 398.385 907.067 397.825 908C397.291 908.933 396.945 910.173 396.785 911.72H404.065C405.025 911.72 405.651 911.52 405.945 911.12C406.265 910.72 406.425 910.227 406.425 909.64C406.425 908.867 406.225 908.16 405.825 907.52C405.451 906.853 404.931 906.32 404.265 905.92C403.625 905.52 402.891 905.32 402.065 905.32ZM402.025 923.52C399.331 923.52 397.171 922.653 395.545 920.92C393.918 919.16 393.105 916.747 393.105 913.68C393.105 911.627 393.518 909.84 394.345 908.32C395.198 906.8 396.318 905.613 397.705 904.76C399.118 903.907 400.651 903.48 402.305 903.48C403.691 903.48 404.945 903.787 406.065 904.4C407.185 905.013 408.078 905.893 408.745 907.04C409.411 908.16 409.745 909.533 409.745 911.16C409.745 911.613 409.718 912.04 409.665 912.44C409.611 912.813 409.545 913.133 409.465 913.4H396.705C396.758 915.853 397.371 917.72 398.545 919C399.718 920.28 401.265 920.92 403.185 920.92C404.465 920.92 405.531 920.667 406.385 920.16C407.238 919.627 408.025 918.947 408.745 918.12L409.705 918.88C408.958 920.293 407.945 921.427 406.665 922.28C405.385 923.107 403.838 923.52 402.025 923.52Z" fill="white"/>
<path d="M12.8595 200.08H9.41953C9.39287 201.84 9.3662 203.6 9.33953 205.36C9.33953 207.093 9.33953 208.907 9.33953 210.8H12.4195C14.5795 210.8 16.1662 210.28 17.1795 209.24C18.2195 208.2 18.7395 206.88 18.7395 205.28C18.7395 203.6 18.2729 202.32 17.3395 201.44C16.4062 200.533 14.9129 200.08 12.8595 200.08ZM1.77953 199.88V198.24H12.9795C16.0462 198.24 18.4329 198.853 20.1395 200.08C21.8462 201.307 22.6995 203.027 22.6995 205.24C22.6995 206.787 22.1395 208.2 21.0195 209.48C19.8995 210.76 18.2195 211.6 15.9795 212C17.1529 212.24 18.1129 212.76 18.8595 213.56C19.6329 214.333 20.2462 215.507 20.6995 217.08L22.4195 223L25.4995 223.36V225C25.0995 225.107 24.6462 225.2 24.1395 225.28C23.6595 225.36 23.1129 225.4 22.4995 225.4C21.2462 225.4 20.2995 225.213 19.6595 224.84C19.0462 224.467 18.6195 223.8 18.3795 222.84L16.7795 216.44C16.5395 215.347 16.1929 214.533 15.7395 214C15.2862 213.44 14.6995 213.067 13.9795 212.88C13.2862 212.693 12.3929 212.6 11.2995 212.6H9.33953C9.33953 214.52 9.33953 216.32 9.33953 218C9.3662 219.68 9.39287 221.32 9.41953 222.92L13.0995 223.36V225H1.77953V223.36L5.45953 222.92C5.51286 221.24 5.53953 219.533 5.53953 217.8C5.53953 216.067 5.53953 214.333 5.53953 212.6V210.64C5.53953 208.907 5.53953 207.187 5.53953 205.48C5.53953 203.747 5.51286 202.027 5.45953 200.32L1.77953 199.88ZM36.4436 207.32C35.6969 207.32 34.9369 207.533 34.1636 207.96C33.4169 208.387 32.7636 209.067 32.2036 210C31.6703 210.933 31.3236 212.173 31.1636 213.72H38.4436C39.4036 213.72 40.0303 213.52 40.3236 213.12C40.6436 212.72 40.8036 212.227 40.8036 211.64C40.8036 210.867 40.6036 210.16 40.2036 209.52C39.8303 208.853 39.3103 208.32 38.6436 207.92C38.0036 207.52 37.2703 207.32 36.4436 207.32ZM36.4036 225.52C33.7103 225.52 31.5503 224.653 29.9236 222.92C28.2969 221.16 27.4836 218.747 27.4836 215.68C27.4836 213.627 27.8969 211.84 28.7236 210.32C29.5769 208.8 30.6969 207.613 32.0836 206.76C33.4969 205.907 35.0303 205.48 36.6836 205.48C38.0703 205.48 39.3236 205.787 40.4436 206.4C41.5636 207.013 42.4569 207.893 43.1236 209.04C43.7903 210.16 44.1236 211.533 44.1236 213.16C44.1236 213.613 44.0969 214.04 44.0436 214.44C43.9903 214.813 43.9236 215.133 43.8436 215.4H31.0836C31.1369 217.853 31.7503 219.72 32.9236 221C34.0969 222.28 35.6436 222.92 37.5636 222.92C38.8436 222.92 39.9103 222.667 40.7636 222.16C41.6169 221.627 42.4036 220.947 43.1236 220.12L44.0836 220.88C43.3369 222.293 42.3236 223.427 41.0436 224.28C39.7636 225.107 38.2169 225.52 36.4036 225.52ZM68.5236 207.56V206H75.8436V207.56L73.6836 208.08L67.8436 225.24H66.3636L61.1636 211.04L55.8836 225.24H54.4036L47.9636 207.96L45.6836 207.56V206H54.8036V207.56L51.6836 208.04L55.8036 220.32L60.2836 208.04L57.3236 207.56V206H66.1636V207.56L63.2036 208.08L67.7636 220.28L71.4836 208.12L68.5236 207.56ZM92.2455 225.4C91.2855 225.4 90.4855 225.12 89.8455 224.56C89.2055 224 88.8055 223.253 88.6455 222.32C87.5521 223.387 86.5921 224.187 85.7655 224.72C84.9388 225.253 83.9388 225.52 82.7655 225.52C81.2988 225.52 80.0321 225.107 78.9655 224.28C77.9255 223.427 77.4055 222.173 77.4055 220.52C77.4055 219.747 77.5788 219.027 77.9255 218.36C78.2988 217.693 78.9655 217.04 79.9255 216.4C80.8855 215.76 82.2588 215.12 84.0455 214.48C84.6588 214.267 85.3655 214.04 86.1655 213.8C86.9655 213.56 87.7655 213.347 88.5655 213.16V212.16C88.5655 210.213 88.2721 208.92 87.6855 208.28C87.0988 207.64 86.1388 207.32 84.8055 207.32C84.5121 207.32 84.1788 207.333 83.8055 207.36C83.4588 207.387 83.0721 207.453 82.6455 207.56L81.8855 210.16C81.5121 211.44 80.8188 212.08 79.8055 212.08C78.6855 212.08 78.0588 211.533 77.9255 210.44C78.2988 208.92 79.1788 207.72 80.5655 206.84C81.9788 205.933 83.6988 205.48 85.7255 205.48C87.8321 205.48 89.3921 206.013 90.4055 207.08C91.4188 208.12 91.9255 209.907 91.9255 212.44V220.96C91.9255 221.813 92.0588 222.427 92.3255 222.8C92.5921 223.147 92.9388 223.32 93.3655 223.32C93.7121 223.32 94.0055 223.24 94.2455 223.08C94.4855 222.92 94.7121 222.707 94.9255 222.44L95.7255 223.32C95.2455 224.093 94.7121 224.64 94.1255 224.96C93.5655 225.253 92.9388 225.4 92.2455 225.4ZM80.9655 219.92C80.9655 220.987 81.2721 221.747 81.8855 222.2C82.4988 222.653 83.2588 222.88 84.1655 222.88C84.5655 222.88 84.9388 222.827 85.2855 222.72C85.6588 222.613 86.0988 222.413 86.6055 222.12C87.1121 221.8 87.7655 221.347 88.5655 220.76V214.64C87.8721 214.827 87.1921 215.04 86.5255 215.28C85.8588 215.493 85.3121 215.68 84.8855 215.84C83.7388 216.293 82.8855 216.76 82.3255 217.24C81.7655 217.72 81.3921 218.187 81.2055 218.64C81.0455 219.093 80.9655 219.52 80.9655 219.92ZM97.4417 225V223.56L100.322 223.04C100.348 222.027 100.362 220.933 100.362 219.76C100.388 218.56 100.402 217.507 100.402 216.6V214.68C100.402 213.587 100.388 212.68 100.362 211.96C100.362 211.24 100.335 210.48 100.282 209.68L97.1217 209.32V207.92L102.722 205.48L103.322 205.88L103.762 210.6C104.428 209 105.282 207.747 106.322 206.84C107.388 205.933 108.455 205.48 109.522 205.48C110.135 205.48 110.708 205.613 111.242 205.88C111.775 206.147 112.162 206.507 112.402 206.96C112.402 208.907 111.615 209.88 110.042 209.88C109.588 209.88 109.162 209.8 108.762 209.64C108.362 209.453 107.975 209.2 107.602 208.88L107.122 208.44C106.322 209.027 105.655 209.747 105.122 210.6C104.588 211.453 104.148 212.453 103.802 213.6V216.6C103.802 217.48 103.802 218.507 103.802 219.68C103.828 220.853 103.855 221.947 103.882 222.96L107.162 223.56V225H97.4417ZM117.685 215.6C117.685 218.213 118.205 220.147 119.245 221.4C120.312 222.627 121.645 223.24 123.245 223.24C124.125 223.24 124.898 223.067 125.565 222.72C126.258 222.347 126.978 221.747 127.725 220.92V209.84C126.818 209.04 126.005 208.493 125.285 208.2C124.565 207.907 123.872 207.76 123.205 207.76C122.218 207.76 121.298 208.04 120.445 208.6C119.618 209.133 118.952 209.987 118.445 211.16C117.938 212.307 117.685 213.787 117.685 215.6ZM128.125 225.4L127.845 222.64C127.152 223.547 126.352 224.253 125.445 224.76C124.565 225.267 123.498 225.52 122.245 225.52C120.618 225.52 119.192 225.107 117.965 224.28C116.738 223.453 115.778 222.307 115.085 220.84C114.418 219.347 114.085 217.627 114.085 215.68C114.085 213.627 114.458 211.84 115.205 210.32C115.952 208.8 116.965 207.613 118.245 206.76C119.525 205.907 120.978 205.48 122.605 205.48C123.538 205.48 124.432 205.667 125.285 206.04C126.165 206.413 127.018 207.093 127.845 208.08V199.04L124.445 198.64V197.24L130.685 195.44L131.245 195.76L131.085 201.44V223.08L134.325 223.56V225L128.125 225.4Z" fill="white"/>
<path d="M1637.1 80.88V79.24H1648.42V80.88L1644.74 81.32C1644.71 83.0267 1644.68 84.7467 1644.66 86.48C1644.66 88.1867 1644.66 89.9067 1644.66 91.64V94.4C1644.66 95.8133 1644.66 97.3467 1644.66 99C1644.68 100.627 1644.71 102.293 1644.74 104H1653.82L1654.98 98.48H1657.42L1657.02 106H1637.1V104.36L1640.78 103.92C1640.83 102.187 1640.86 100.467 1640.86 98.76C1640.86 97.0533 1640.86 95.3467 1640.86 93.64V91.64C1640.86 89.9067 1640.86 88.1733 1640.86 86.44C1640.86 84.7067 1640.83 83 1640.78 81.32L1637.1 80.88ZM1660.56 106V104.56L1663.56 104C1663.59 102.987 1663.6 101.893 1663.6 100.72C1663.63 99.52 1663.64 98.48 1663.64 97.6V95.72C1663.64 94.6267 1663.63 93.72 1663.6 93C1663.6 92.2533 1663.58 91.48 1663.52 90.68L1660.32 90.32V88.92L1666.48 86.48L1667.08 86.88L1666.96 92.32V97.6C1666.96 98.48 1666.96 99.52 1666.96 100.72C1666.99 101.893 1667.02 102.987 1667.04 104L1669.84 104.56V106H1660.56ZM1665.28 82.08C1664.54 82.08 1663.9 81.84 1663.36 81.36C1662.86 80.88 1662.6 80.2667 1662.6 79.52C1662.6 78.7467 1662.86 78.1333 1663.36 77.68C1663.9 77.2 1664.54 76.96 1665.28 76.96C1666.03 76.96 1666.66 77.2 1667.16 77.68C1667.7 78.1333 1667.96 78.7467 1667.96 79.52C1667.96 80.2667 1667.7 80.88 1667.16 81.36C1666.66 81.84 1666.03 82.08 1665.28 82.08ZM1676.48 96.64C1676.48 99.2533 1677 101.173 1678.04 102.4C1679.1 103.627 1680.44 104.24 1682.04 104.24C1682.92 104.24 1683.72 104.053 1684.44 103.68C1685.16 103.28 1685.9 102.627 1686.68 101.72V90.96C1685.72 90.1067 1684.86 89.5333 1684.12 89.24C1683.4 88.92 1682.69 88.76 1682 88.76C1681.01 88.76 1680.09 89.04 1679.24 89.6C1678.41 90.16 1677.74 91.0267 1677.24 92.2C1676.73 93.3467 1676.48 94.8267 1676.48 96.64ZM1681.04 106.52C1679.41 106.52 1677.98 106.107 1676.76 105.28C1675.53 104.453 1674.57 103.307 1673.88 101.84C1673.21 100.373 1672.88 98.6667 1672.88 96.72C1672.88 94.6667 1673.24 92.88 1673.96 91.36C1674.7 89.8133 1675.72 88.6133 1677 87.76C1678.28 86.9067 1679.7 86.48 1681.28 86.48C1682.21 86.48 1683.13 86.68 1684.04 87.08C1684.97 87.48 1685.89 88.2 1686.8 89.24L1689.52 86.48L1690.16 86.88L1690.04 92.28V107.08C1690.04 108.147 1690.04 109.227 1690.04 110.32C1690.06 111.413 1690.09 112.507 1690.12 113.6L1693.32 114.16V115.56H1683.04V114.16L1686.72 113.56C1686.74 112.467 1686.76 111.373 1686.76 110.28C1686.78 109.213 1686.8 108.147 1686.8 107.08V103.4C1686.02 104.467 1685.16 105.253 1684.2 105.76C1683.26 106.267 1682.21 106.52 1681.04 106.52ZM1702.26 106.52C1700.64 106.52 1699.36 105.987 1698.42 104.92C1697.49 103.827 1697.04 101.96 1697.06 99.32L1697.18 89.36L1694.34 88.76V87.32L1700.22 86.76L1700.62 87.16L1700.42 92.76V98.96C1700.42 100.693 1700.69 101.92 1701.22 102.64C1701.76 103.333 1702.56 103.68 1703.62 103.68C1705.49 103.68 1707.36 102.813 1709.22 101.08L1709.34 89.32L1706.5 88.76V87.32L1712.3 86.76L1712.7 87.16L1712.58 92.76V104L1715.3 104.56V106L1709.74 106.32L1709.34 102.76C1708.28 104.067 1707.13 105.027 1705.9 105.64C1704.7 106.227 1703.49 106.52 1702.26 106.52ZM1718.06 106V104.56L1721.06 104C1721.09 102.987 1721.1 101.893 1721.1 100.72C1721.13 99.52 1721.14 98.48 1721.14 97.6V95.72C1721.14 94.6267 1721.13 93.72 1721.1 93C1721.1 92.2533 1721.08 91.48 1721.02 90.68L1717.82 90.32V88.92L1723.98 86.48L1724.58 86.88L1724.46 92.32V97.6C1724.46 98.48 1724.46 99.52 1724.46 100.72C1724.49 101.893 1724.52 102.987 1724.54 104L1727.34 104.56V106H1718.06ZM1722.78 82.08C1722.04 82.08 1721.4 81.84 1720.86 81.36C1720.36 80.88 1720.1 80.2667 1720.1 79.52C1720.1 78.7467 1720.36 78.1333 1720.86 77.68C1721.4 77.2 1722.04 76.96 1722.78 76.96C1723.53 76.96 1724.16 77.2 1724.66 77.68C1725.2 78.1333 1725.46 78.7467 1725.46 79.52C1725.46 80.2667 1725.2 80.88 1724.66 81.36C1724.16 81.84 1723.53 82.08 1722.78 82.08ZM1733.98 96.6C1733.98 99.2133 1734.5 101.147 1735.54 102.4C1736.6 103.627 1737.94 104.24 1739.54 104.24C1740.42 104.24 1741.19 104.067 1741.86 103.72C1742.55 103.347 1743.27 102.747 1744.02 101.92V90.84C1743.11 90.04 1742.3 89.4933 1741.58 89.2C1740.86 88.9067 1740.16 88.76 1739.5 88.76C1738.51 88.76 1737.59 89.04 1736.74 89.6C1735.91 90.1333 1735.24 90.9867 1734.74 92.16C1734.23 93.3067 1733.98 94.7867 1733.98 96.6ZM1744.42 106.4L1744.14 103.64C1743.44 104.547 1742.64 105.253 1741.74 105.76C1740.86 106.267 1739.79 106.52 1738.54 106.52C1736.91 106.52 1735.48 106.107 1734.26 105.28C1733.03 104.453 1732.07 103.307 1731.38 101.84C1730.71 100.347 1730.38 98.6267 1730.38 96.68C1730.38 94.6267 1730.75 92.84 1731.5 91.32C1732.24 89.8 1733.26 88.6133 1734.54 87.76C1735.82 86.9067 1737.27 86.48 1738.9 86.48C1739.83 86.48 1740.72 86.6667 1741.58 87.04C1742.46 87.4133 1743.31 88.0933 1744.14 89.08V80.04L1740.74 79.64V78.24L1746.98 76.44L1747.54 76.76L1747.38 82.44V104.08L1750.62 104.56V106L1744.42 106.4ZM1752.67 106V104.56L1755.67 104C1755.7 102.987 1755.71 101.893 1755.71 100.72C1755.74 99.52 1755.75 98.48 1755.75 97.6V95.72C1755.75 94.6267 1755.74 93.72 1755.71 93C1755.71 92.2533 1755.69 91.48 1755.63 90.68L1752.43 90.32V88.92L1758.59 86.48L1759.19 86.88L1759.07 92.32V97.6C1759.07 98.48 1759.07 99.52 1759.07 100.72C1759.1 101.893 1759.13 102.987 1759.15 104L1761.95 104.56V106H1752.67ZM1757.39 82.08C1756.65 82.08 1756.01 81.84 1755.47 81.36C1754.97 80.88 1754.71 80.2667 1754.71 79.52C1754.71 78.7467 1754.97 78.1333 1755.47 77.68C1756.01 77.2 1756.65 76.96 1757.39 76.96C1758.14 76.96 1758.77 77.2 1759.27 77.68C1759.81 78.1333 1760.07 78.7467 1760.07 79.52C1760.07 80.2667 1759.81 80.88 1759.27 81.36C1758.77 81.84 1758.14 82.08 1757.39 82.08ZM1771.39 106.52C1770 106.52 1768.89 106.147 1768.07 105.4C1767.24 104.653 1766.83 103.507 1766.83 101.96C1766.83 101.453 1766.83 100.96 1766.83 100.48C1766.85 99.9733 1766.87 99.3333 1766.87 98.56V89.12H1763.55V87.36L1767.11 86.92L1768.15 81.56H1770.55L1770.31 87H1775.71V89.12H1770.27V101.52C1770.27 102.533 1770.47 103.28 1770.87 103.76C1771.27 104.213 1771.8 104.44 1772.47 104.44C1772.92 104.44 1773.35 104.347 1773.75 104.16C1774.17 103.973 1774.64 103.707 1775.15 103.36L1776.11 104.4C1775.01 105.813 1773.44 106.52 1771.39 106.52ZM1788.88 88.44V87H1796.68V88.44L1794.52 88.88L1788.08 105.88C1786.74 109.427 1785.45 111.987 1784.2 113.56C1782.97 115.16 1781.53 115.96 1779.88 115.96C1778.89 115.96 1778.02 115.707 1777.28 115.2C1776.56 114.72 1776.2 114.093 1776.2 113.32C1776.33 112.733 1776.65 112.293 1777.16 112C1777.69 111.707 1778.26 111.56 1778.88 111.56C1779.41 111.56 1779.9 111.667 1780.36 111.88C1780.81 112.12 1781.3 112.52 1781.84 113.08L1782.04 113.28C1782.89 112.56 1783.61 111.68 1784.2 110.64C1784.78 109.627 1785.26 108.587 1785.64 107.52L1785.8 107.04L1778.56 88.76L1776.36 88.44V87H1785.96V88.48L1782.44 88.88L1787.44 102.52L1792.36 88.92L1788.88 88.44Z" fill="white"/>
<path d="M1873.81 457.52L1869.77 469.44H1877.81L1873.81 457.52ZM1861.65 480V478.36L1865.01 477.84L1873.53 453.04H1876.05L1884.57 478L1887.57 478.36V480H1876.69V478.36L1880.61 477.88L1878.41 471.32H1869.13L1866.89 477.84L1870.81 478.36V480H1861.65ZM1889.41 480V478.56L1892.41 478C1892.44 476.987 1892.45 475.893 1892.45 474.72C1892.48 473.52 1892.49 472.48 1892.49 471.6V469.72C1892.49 468.627 1892.48 467.72 1892.45 467C1892.45 466.253 1892.43 465.48 1892.37 464.68L1889.17 464.32V462.92L1895.33 460.48L1895.93 460.88L1895.81 466.32V471.6C1895.81 472.48 1895.81 473.52 1895.81 474.72C1895.84 475.893 1895.87 476.987 1895.89 478L1898.69 478.56V480H1889.41ZM1894.13 456.08C1893.39 456.08 1892.75 455.84 1892.21 455.36C1891.71 454.88 1891.45 454.267 1891.45 453.52C1891.45 452.747 1891.71 452.133 1892.21 451.68C1892.75 451.2 1893.39 450.96 1894.13 450.96C1894.88 450.96 1895.51 451.2 1896.01 451.68C1896.55 452.133 1896.81 452.747 1896.81 453.52C1896.81 454.267 1896.55 454.88 1896.01 455.36C1895.51 455.84 1894.88 456.08 1894.13 456.08ZM1901.61 480V478.56L1904.49 478.04C1904.51 477.027 1904.53 475.933 1904.53 474.76C1904.55 473.56 1904.57 472.507 1904.57 471.6V469.68C1904.57 468.587 1904.55 467.68 1904.53 466.96C1904.53 466.24 1904.5 465.48 1904.45 464.68L1901.29 464.32V462.92L1906.89 460.48L1907.49 460.88L1907.93 465.6C1908.59 464 1909.45 462.747 1910.49 461.84C1911.55 460.933 1912.62 460.48 1913.69 460.48C1914.3 460.48 1914.87 460.613 1915.41 460.88C1915.94 461.147 1916.33 461.507 1916.57 461.96C1916.57 463.907 1915.78 464.88 1914.21 464.88C1913.75 464.88 1913.33 464.8 1912.93 464.64C1912.53 464.453 1912.14 464.2 1911.77 463.88L1911.29 463.44C1910.49 464.027 1909.82 464.747 1909.29 465.6C1908.75 466.453 1908.31 467.453 1907.97 468.6V471.6C1907.97 472.48 1907.97 473.507 1907.97 474.68C1907.99 475.853 1908.02 476.947 1908.05 477.96L1911.33 478.56V480H1901.61ZM1921.85 470.6C1921.85 473.213 1922.37 475.147 1923.41 476.4C1924.48 477.627 1925.81 478.24 1927.41 478.24C1928.29 478.24 1929.06 478.067 1929.73 477.72C1930.42 477.347 1931.14 476.747 1931.89 475.92V464.84C1930.98 464.04 1930.17 463.493 1929.45 463.2C1928.73 462.907 1928.04 462.76 1927.37 462.76C1926.38 462.76 1925.46 463.04 1924.61 463.6C1923.78 464.133 1923.12 464.987 1922.61 466.16C1922.1 467.307 1921.85 468.787 1921.85 470.6ZM1932.29 480.4L1932.01 477.64C1931.32 478.547 1930.52 479.253 1929.61 479.76C1928.73 480.267 1927.66 480.52 1926.41 480.52C1924.78 480.52 1923.36 480.107 1922.13 479.28C1920.9 478.453 1919.94 477.307 1919.25 475.84C1918.58 474.347 1918.25 472.627 1918.25 470.68C1918.25 468.627 1918.62 466.84 1919.37 465.32C1920.12 463.8 1921.13 462.613 1922.41 461.76C1923.69 460.907 1925.14 460.48 1926.77 460.48C1927.7 460.48 1928.6 460.667 1929.45 461.04C1930.33 461.413 1931.18 462.093 1932.01 463.08V454.04L1928.61 453.64V452.24L1934.85 450.44L1935.41 450.76L1935.25 456.44V478.08L1938.49 478.56V480L1932.29 480.4ZM1940.82 480V478.56L1943.7 478.04C1943.73 477.027 1943.74 475.933 1943.74 474.76C1943.77 473.56 1943.78 472.507 1943.78 471.6V469.68C1943.78 468.587 1943.77 467.68 1943.74 466.96C1943.74 466.24 1943.72 465.48 1943.66 464.68L1940.5 464.32V462.92L1946.1 460.48L1946.7 460.88L1947.14 465.6C1947.81 464 1948.66 462.747 1949.7 461.84C1950.77 460.933 1951.84 460.48 1952.9 460.48C1953.52 460.48 1954.09 460.613 1954.62 460.88C1955.16 461.147 1955.54 461.507 1955.78 461.96C1955.78 463.907 1955 464.88 1953.42 464.88C1952.97 464.88 1952.54 464.8 1952.14 464.64C1951.74 464.453 1951.36 464.2 1950.98 463.88L1950.5 463.44C1949.7 464.027 1949.04 464.747 1948.5 465.6C1947.97 466.453 1947.53 467.453 1947.18 468.6V471.6C1947.18 472.48 1947.18 473.507 1947.18 474.68C1947.21 475.853 1947.24 476.947 1947.26 477.96L1950.54 478.56V480H1940.82ZM1966.63 480.52C1965.08 480.52 1963.6 480.16 1962.19 479.44C1960.8 478.693 1959.67 477.587 1958.79 476.12C1957.91 474.627 1957.47 472.787 1957.47 470.6C1957.47 468.387 1957.91 466.533 1958.79 465.04C1959.67 463.52 1960.8 462.387 1962.19 461.64C1963.6 460.867 1965.08 460.48 1966.63 460.48C1968.17 460.48 1969.64 460.867 1971.03 461.64C1972.44 462.387 1973.59 463.52 1974.47 465.04C1975.37 466.533 1975.83 468.387 1975.83 470.6C1975.83 472.787 1975.37 474.627 1974.47 476.12C1973.59 477.587 1972.44 478.693 1971.03 479.44C1969.64 480.16 1968.17 480.52 1966.63 480.52ZM1966.63 478.72C1968.36 478.72 1969.69 478.04 1970.63 476.68C1971.56 475.293 1972.03 473.267 1972.03 470.6C1972.03 467.907 1971.56 465.853 1970.63 464.44C1969.69 463.027 1968.36 462.32 1966.63 462.32C1964.89 462.32 1963.56 463.027 1962.63 464.44C1961.72 465.853 1961.27 467.907 1961.27 470.6C1961.27 473.267 1961.72 475.293 1962.63 476.68C1963.56 478.04 1964.89 478.72 1966.63 478.72ZM1978.63 489.56V488.16L1981.83 487.6C1981.86 486.507 1981.87 485.413 1981.87 484.32C1981.9 483.253 1981.91 482.187 1981.91 481.12V469.68C1981.91 468.587 1981.9 467.68 1981.87 466.96C1981.87 466.24 1981.84 465.48 1981.79 464.68L1978.63 464.32V462.92L1984.23 460.48L1984.83 460.88L1985.07 463.48C1986.96 461.48 1988.98 460.48 1991.11 460.48C1992.55 460.48 1993.84 460.88 1994.99 461.68C1996.14 462.48 1997.04 463.627 1997.71 465.12C1998.4 466.587 1998.75 468.36 1998.75 470.44C1998.75 472.493 1998.39 474.28 1997.67 475.8C1996.95 477.293 1995.96 478.453 1994.71 479.28C1993.48 480.107 1992.08 480.52 1990.51 480.52C1989.6 480.52 1988.7 480.333 1987.79 479.96C1986.91 479.587 1986.04 478.907 1985.19 477.92V481.08C1985.19 482.147 1985.19 483.213 1985.19 484.28C1985.22 485.373 1985.24 486.467 1985.27 487.56L1988.91 488.16V489.56H1978.63ZM1990.15 462.76C1989.54 462.76 1988.83 462.92 1988.03 463.24C1987.23 463.533 1986.32 464.107 1985.31 464.96V476.2C1986.06 476.92 1986.79 477.44 1987.51 477.76C1988.23 478.08 1988.96 478.24 1989.71 478.24C1991.2 478.24 1992.48 477.64 1993.55 476.44C1994.62 475.24 1995.15 473.347 1995.15 470.76C1995.15 468.2 1994.68 466.227 1993.75 464.84C1992.82 463.453 1991.62 462.76 1990.15 462.76Z" fill="white"/>
<path d="M1009.59 586.076L996.263 599.398L982.825 585.969H987.25V569H974.366C972.054 569 969.963 569.938 968.447 571.446C966.939 572.96 966 575.05 966 577.36V624.806C966 627.117 966.939 629.207 968.447 630.721C969.963 632.235 972.054 633.167 974.366 633.167H987.25V619.197L982.825 619.091L996.157 605.768L1009.59 619.197H1005.17V633.167H1017.63C1019.95 633.167 1022.04 632.228 1023.55 630.721C1025.07 629.207 1026 627.117 1026 624.806V577.36C1026 575.05 1025.06 572.96 1023.55 571.446C1022.03 569.938 1019.94 569 1017.63 569H1005.17V585.969L1009.59 586.076Z" fill="#2F52EC"/>
<g filter="url(#filter0_b_3_69)">
<path d="M936 603.843C936 570.793 962.95 544 996 544C1029.05 544 1056 570.793 1056 603.843C1056 636.894 1029.05 663.686 996 663.686C962.95 663.686 936 636.894 936 603.843Z" fill="url(#paint0_radial_3_69)"/>
<path d="M936.5 603.843C936.5 571.071 963.224 544.5 996 544.5C1028.78 544.5 1055.5 571.071 1055.5 603.843C1055.5 636.616 1028.78 663.186 996 663.186C963.224 663.186 936.5 636.616 936.5 603.843Z" stroke="url(#paint1_radial_3_69)"/>
<path d="M936.5 603.843C936.5 571.071 963.224 544.5 996 544.5C1028.78 544.5 1055.5 571.071 1055.5 603.843C1055.5 636.616 1028.78 663.186 996 663.186C963.224 663.186 936.5 636.616 936.5 603.843Z" stroke="url(#paint2_radial_3_69)"/>
<path d="M936.5 603.843C936.5 571.071 963.224 544.5 996 544.5C1028.78 544.5 1055.5 571.071 1055.5 603.843C1055.5 636.616 1028.78 663.186 996 663.186C963.224 663.186 936.5 636.616 936.5 603.843Z" stroke="url(#paint3_radial_3_69)"/>
</g>
<g filter="url(#filter1_f_3_69)">
<ellipse cx="995.615" cy="576.223" rx="38.0769" ry="24.551" fill="url(#paint4_radial_3_69)" fill-opacity="0.2"/>
</g>
<defs>
<filter id="filter0_b_3_69" x="931" y="539" width="130" height="129.686" filterUnits="userSpaceOnUse" color-interpolation-filters="sRGB">
<feFlood flood-opacity="0" result="BackgroundImageFix"/>
<feGaussianBlur in="BackgroundImageFix" stdDeviation="2.5"/>
<feComposite in2="SourceAlpha" operator="in" result="effect1_backgroundBlur_3_69"/>
<feBlend mode="normal" in="SourceGraphic" in2="effect1_backgroundBlur_3_69" result="shape"/>
</filter>
<filter id="filter1_f_3_69" x="944.584" y="538.718" width="102.063" height="75.0111" filterUnits="userSpaceOnUse" color-interpolation-filters="sRGB">
<feFlood flood-opacity="0" result="BackgroundImageFix"/>
<feBlend mode="normal" in="SourceGraphic" in2="BackgroundImageFix" result="shape"/>
<feGaussianBlur stdDeviation="6.47727" result="effect1_foregroundBlur_3_69"/>
</filter>
<radialGradient id="paint0_radial_3_69" cx="0" cy="0" r="1" gradientUnits="userSpaceOnUse" gradientTransform="translate(946.038 544) rotate(47.9449) scale(179.146 130.163)">
<stop stop-color="white" stop-opacity="0.36"/>
<stop offset="1" stop-color="white" stop-opacity="0"/>
</radialGradient>
<radialGradient id="paint1_radial_3_69" cx="0" cy="0" r="1" gradientUnits="userSpaceOnUse" gradientTransform="translate(872.105 556.244) rotate(35.0407) scale(138.227 81.5823)">
<stop stop-color="white"/>
<stop offset="1" stop-color="white" stop-opacity="0.06"/>
</radialGradient>
<radialGradient id="paint2_radial_3_69" cx="0" cy="0" r="1" gradientUnits="userSpaceOnUse" gradientTransform="translate(1091.13 624.101) rotate(161.385) scale(100.264 67.7676)">
<stop stop-color="#2F52EC"/>
<stop offset="1" stop-color="#2F52EC" stop-opacity="0"/>
</radialGradient>
<radialGradient id="paint3_radial_3_69" cx="0" cy="0" r="1" gradientUnits="userSpaceOnUse" gradientTransform="translate(997.306 516.646) rotate(47.2149) scale(66.9645 48.1318)">
<stop stop-color="white"/>
<stop offset="1" stop-color="white" stop-opacity="0"/>
</radialGradient>
<radialGradient id="paint4_radial_3_69" cx="0" cy="0" r="1" gradientUnits="userSpaceOnUse" gradientTransform="translate(995.615 551.672) rotate(90) scale(36.385 56.4375)">
<stop stop-color="white"/>
<stop offset="1" stop-color="white" stop-opacity="0"/>
</radialGradient>
</defs>
</svg>
